# xmcd CD database file
#
# Track frame offsets:
#	151
#	11990
#	22593
#	34517
#	48180
#	58777
#	73883
#	83838
#	94312
#	108386
#	117908
#	128907
#	141016
#	150632
#	160471
#	174796
#	185295
#	197683
#	209894
#	224482
#	235912
#	248007
#	259138
#	272363
#	281955
#
# Disc length: 3912 seconds
#
# Revision: 1
# Processed by: cddbd v1.5.2PL0 Copyright (c) Steve Scherf et al.
# Submitted via: CDex 1.77
#
DISCID=6a0f4619
DTITLE=Various Artist - The unforgetable Love Songs Collections 10
DYEAR=1900
DGENRE=Country
TTITLE0=Single Girl
TTITLE1=Limbo Rock
TTITLE2=The Twist
TTITLE3=Black Is Black
TTITLE4=Oh Carol
TTITLE5=Sad Movies
TTITLE6=Jambalaya
TTITLE7=Georgy Girl
TTITLE8=Secret Agent
TTITLE9=Wooden Heart
TTITLE10=Big Girls Don't Cry
TTITLE11=California Dreaming
TTITLE12=I'm Gonna Knock On Your Door
TTITLE13=Silver Threads And Golden Needles
TTITLE14=Donna Donna
TTITLE15=Pretty Little Baby
TTITLE16=I'm Sorry
TTITLE17=Soldier Boy
TTITLE18=Harper Valley P.t.a.
TTITLE19=Poetry In Motion
TTITLE20=Why
TTITLE21=Jail House Rock
TTITLE22=No Milk Today
TTITLE23=Love Potion Number 9
TTITLE24=Breaking Up Is Hard To Do
EXTD=
EXTT0=
EXTT1=
EXTT2=
EXTT3=
EXTT4=
EXTT5=
EXTT6=
EXTT7=
EXTT8=
EXTT9=
EXTT10=
EXTT11=
EXTT12=
EXTT13=
EXTT14=
EXTT15=
EXTT16=
EXTT17=
EXTT18=
EXTT19=
EXTT20=
EXTT21=
EXTT22=
EXTT23=
EXTT24=
PLAYORDER=
